<svg width="48" height="48" viewBox="0 0 48 48" fill="none" xmlns="http://www.w3.org/2000/svg">
<rect x="0.5" y="0.5" width="47" height="47" fill="url(#paint0_linear_210_2982)" stroke="#2ECC71"/>
<path d="M19.758 19C20.766 17.78 22.292 17 24 17C25.708 17 27.234 17.78 28.242 19C28.9056 19.8046 29.3268 20.7814 29.4564 21.8163C29.586 22.8512 29.4186 23.9016 28.9738 24.845C28.529 25.7884 27.8252 26.5859 26.9443 27.1445C26.0635 27.703 25.042 27.9996 23.999 27.9996C22.956 27.9996 21.9345 27.703 21.0537 27.1445C20.1728 26.5859 19.469 25.7884 19.0242 24.845C18.5794 23.9016 18.412 22.8512 18.5416 21.8163C18.6712 20.7814 19.0924 19.8046 19.756 19M31.498 22.5C31.498 21.236 31.186 20.044 30.634 19H39C39.7957 19 40.5587 19.3161 41.1213 19.8787C41.6839 20.4413 42 21.2044 42 22V23C42 26.174 39.588 29.424 35.37 30.568C34.9365 29.7894 34.3028 29.1407 33.5345 28.6892C32.7662 28.2377 31.8912 27.9998 31 28H29.1C29.8581 27.2986 30.4627 26.4478 30.8757 25.5012C31.2888 24.5546 31.5013 23.5328 31.5 22.5M31 30C31.3943 29.9989 31.7848 30.0758 32.1493 30.2262C32.5138 30.3766 32.8449 30.5975 33.1237 30.8763C33.4025 31.1551 33.6234 31.4862 33.7738 31.8507C33.9242 32.2152 34.0011 32.6057 34 33V34C34 37.942 30.28 42 24 42C17.72 42 14 37.942 14 34V33C13.9989 32.6057 14.0758 32.2152 14.2262 31.8507C14.3766 31.4862 14.5975 31.1551 14.8763 30.8763C15.1551 30.5975 15.4862 30.3766 15.8507 30.2262C16.2152 30.0758 16.6057 29.9989 17 30H31ZM6 23C6 26.174 8.412 29.424 12.63 30.568C13.0635 29.7894 13.6972 29.1407 14.4655 28.6892C15.2338 28.2377 16.1088 27.9998 17 28H18.9C18.1419 27.2986 17.5373 26.4478 17.1243 25.5012C16.7112 24.5546 16.4987 23.5328 16.5 22.5C16.5 21.236 16.812 20.044 17.366 19H9C8.20435 19 7.44129 19.3161 6.87868 19.8787C6.31607 20.4413 6 21.2044 6 22V23ZM21.5 11.5C21.5 10.0413 20.9205 8.64236 19.8891 7.61091C18.8576 6.57946 17.4587 6 16 6C14.5413 6 13.1424 6.57946 12.1109 7.61091C11.0795 8.64236 10.5 10.0413 10.5 11.5C10.5 12.9587 11.0795 14.3576 12.1109 15.3891C13.1424 16.4205 14.5413 17 16 17C17.4587 17 18.8576 16.4205 19.8891 15.3891C20.9205 14.3576 21.5 12.9587 21.5 11.5ZM37.5 11.5C37.5 10.0413 36.9205 8.64236 35.8891 7.61091C34.8576 6.57946 33.4587 6 32 6C30.5413 6 29.1424 6.57946 28.1109 7.61091C27.0795 8.64236 26.5 10.0413 26.5 11.5C26.5 12.9587 27.0795 14.3576 28.1109 15.3891C29.1424 16.4205 30.5413 17 32 17C33.4587 17 34.8576 16.4205 35.8891 15.3891C36.9205 14.3576 37.5 12.9587 37.5 11.5Z" fill="#2ECC71"/>
<defs>
<linearGradient id="paint0_linear_210_2982" x1="24" y1="0" x2="24" y2="48" gradientUnits="userSpaceOnUse">
<stop stop-color="#2ECC71" stop-opacity="0.4"/>
<stop offset="1" stop-color="#176639" stop-opacity="0.2"/>
</linearGradient>
</defs>
</svg>
