<svg width="48" height="48" viewBox="0 0 48 48" fill="none" xmlns="http://www.w3.org/2000/svg">
<rect x="0.5" y="0.5" width="47" height="47" fill="url(#paint0_linear_210_2974)" stroke="#2ECC71"/>
<path d="M24 13.1406C18.9062 13.1406 14.2969 14.0469 11.0211 15.4609C9.38438 16.1719 8.08594 17.0078 7.22656 17.8906C6.36719 18.7734 5.95312 19.6562 5.95312 20.5625C5.95312 21.4688 6.36719 22.3516 7.22656 23.2344C8.08594 24.1172 9.38438 24.9531 11.0211 25.6641C14.2969 27.0781 18.9062 27.9844 24 27.9844C29.0938 27.9844 33.7031 27.0781 36.9766 25.6641C38.6172 24.9531 39.9141 24.1172 40.7734 23.2344C41.6328 22.3516 42.0469 21.4688 42.0469 20.5625C42.0469 19.6562 41.6328 18.7734 40.7734 17.8906C39.9141 17.0078 38.6172 16.1719 36.9766 15.4609C33.7031 14.0469 29.0938 13.1406 24 13.1406ZM5.95312 23.9297V27.8516C5.95312 28.3437 6.36719 29.2266 7.22656 30.1094C8.08594 30.9922 9.38438 31.8281 11.0211 32.5391C14.2969 33.9531 18.9062 34.8594 24 34.8594C29.0938 34.8594 33.7031 33.9531 36.9766 32.5391C38.6172 31.8281 39.9141 30.9922 40.7734 30.1094C41.6328 29.2266 42.0469 28.3437 42.0469 27.8516V23.9297C41.9609 24.0312 41.875 24.125 41.7812 24.2187C40.7422 25.2812 39.2969 26.1953 37.5391 26.9531C34.0234 28.4766 29.2578 29.3906 24 29.3906C18.7422 29.3906 13.9766 28.4766 10.4625 26.9531C8.70547 26.1953 7.25859 25.2812 6.22031 24.2187C6.12734 24.125 6.03906 24.0234 5.95312 23.9297Z" fill="#2ECC71"/>
<defs>
<linearGradient id="paint0_linear_210_2974" x1="24" y1="0" x2="24" y2="48" gradientUnits="userSpaceOnUse">
<stop stop-color="#2ECC71" stop-opacity="0.4"/>
<stop offset="1" stop-color="#176639" stop-opacity="0.2"/>
</linearGradient>
</defs>
</svg>
