<svg width="326" height="252" viewBox="0 0 326 252" fill="none" xmlns="http://www.w3.org/2000/svg">
<path d="M48.4335 225.907C111.817 260.692 214.574 260.692 277.958 225.907C341.342 191.122 341.334 134.721 277.958 99.9357C214.582 65.1507 111.817 65.1507 48.4335 99.9357C-14.9501 134.721 -14.9426 191.146 48.4335 225.907Z" fill="url(#paint0_linear_141_1399)"/>
<path d="M104.069 64.0628C92.0038 71.3822 82.2304 89.1761 82.2304 103.799C82.2304 118.422 92.0038 124.358 104.069 117.047C116.135 109.736 125.908 91.9337 125.908 77.3108C125.908 62.6879 116.127 56.7434 104.069 64.0628ZM102.224 105.682C100.735 106.668 99.0329 107.24 97.2763 107.343C93.0402 107.343 92.5787 102.09 92.5787 99.8333C92.5787 91.0119 98.7212 79.846 105.991 75.4353C107.475 74.4472 109.176 73.8753 110.93 73.7743C115.174 73.7743 115.628 79.0274 115.628 81.2845C115.59 90.0979 109.455 101.272 102.224 105.682Z" fill="#2ECC71"/>
<path d="M111.497 73.8219C111.296 73.7932 111.094 73.7773 110.892 73.7742C109.829 73.8122 108.783 74.0574 107.805 74.4974C107.902 75.2108 107.95 75.9305 107.949 76.6511C107.949 85.4645 101.807 96.6383 94.537 101.041C93.9432 101.403 93.3235 101.717 92.6837 101.979C92.8227 103.306 93.2694 104.578 93.9848 105.682C94.3565 106.217 94.8474 106.648 95.4144 106.938C95.9815 107.228 96.6074 107.367 97.2375 107.343C98.9948 107.244 100.698 106.672 102.185 105.682C109.454 101.272 115.589 90.0978 115.589 81.2843C115.589 79.1385 115.173 74.2987 111.497 73.8219Z" fill="#263238"/>
<path d="M119.478 62.4416L108.646 55.8692C104.675 53.4294 99.1978 53.7632 93.1462 57.403C81.0428 64.7224 71.3072 82.5163 71.3072 97.1392C71.3072 104.371 73.6976 109.465 77.5707 111.897L77.6766 111.977H77.7371L88.4183 118.454H88.4712C86.6126 117.237 85.1222 115.489 84.1746 113.415C83.344 111.63 82.7898 109.717 82.533 107.749C82.3358 106.413 82.2347 105.063 82.2305 103.712C82.2305 89.0807 92.0039 71.2868 104.069 63.9754C105.186 63.3032 106.349 62.7213 107.549 62.235C109.301 61.4852 111.154 61.0319 113.041 60.8919C115.279 60.7069 117.52 61.2153 119.486 62.3542L119.478 62.4416Z" fill="#37474F"/>
<path d="M101.92 7.08907L91.7306 0.906128L76.3821 10.2123L40.7605 143.114L50.9575 149.297L66.0942 140.11L101.92 7.08907Z" fill="#37474F"/>
<path d="M66.0942 140.11L50.9575 149.297L86.632 16.3637L101.92 7.08923L66.0942 140.11Z" fill="#2ECC71"/>
<path d="M50.9575 149.297L86.6321 16.3637L76.3821 10.2125L40.7605 143.114L50.9575 149.297Z" fill="#263238"/>
<path d="M44.7318 42.645C32.6738 49.9644 22.8928 67.7582 22.8928 82.3811C22.8928 97.004 32.689 102.949 44.7318 95.6371C56.7746 88.3256 66.5707 70.5238 66.5707 55.9009C66.5707 41.2781 56.8351 35.3335 44.7318 42.645ZM42.8709 84.2646C41.3833 85.2517 39.6804 85.8234 37.9236 85.9256C33.6799 85.9256 33.226 80.6724 33.226 78.4154C33.226 69.602 39.3609 58.4282 46.6305 54.0175C48.1171 53.0281 49.8205 52.4562 51.5777 52.3565C55.8139 52.3565 56.2753 57.6096 56.2753 59.8666C56.2753 68.6801 50.1329 79.8539 42.8709 84.2646Z" fill="#2ECC71"/>
<path d="M52.1838 52.4043C51.9831 52.3759 51.781 52.36 51.5786 52.3566C50.5128 52.3945 49.4633 52.6425 48.4847 53.0877C48.5811 53.7985 48.6291 54.5155 48.6284 55.2335C48.6284 64.047 42.4935 75.2208 35.224 79.6236C34.6341 79.9834 34.0197 80.2968 33.3858 80.5613C33.5237 81.893 33.9733 83.168 34.6945 84.2727C35.067 84.8062 35.5582 85.2359 36.1252 85.524C36.6923 85.8122 37.3178 85.9501 37.9472 85.9257C39.704 85.8236 41.4069 85.2519 42.8945 84.2647C50.1565 79.854 56.2989 68.6802 56.2989 59.8667C56.2762 57.721 55.8526 52.8811 52.1838 52.4043Z" fill="#263238"/>
<path d="M60.1639 41.0238L49.3314 34.4515C45.3751 32.0275 39.8984 32.3613 33.8467 36.0409C21.7434 43.3523 12.0002 61.1462 12.0002 75.777C12.0002 83.009 14.3981 88.1032 18.2636 90.5351L18.3695 90.6145H18.4301L29.0961 97.1392H29.1566C27.296 95.9262 25.8029 94.1811 24.8524 92.1086C24.0228 90.3203 23.4688 88.4051 23.2109 86.4343C23.0134 85.0985 22.9122 83.7489 22.9083 82.3971C22.9083 67.7662 32.6893 49.9724 44.7472 42.6609C45.8649 41.9919 47.028 41.4102 48.227 40.9205C49.9812 40.1707 51.8373 39.7174 53.7264 39.5774C55.9622 39.3931 58.2003 39.9015 60.1639 41.0397V41.0238Z" fill="#37474F"/>
<path d="M246.352 198.782L253.501 212.968C259.192 212.021 264.678 210.022 269.704 207.063L252.419 202.986C250.657 204.043 248.569 198.377 246.352 198.782Z" fill="#2ECC71"/>
<path opacity="0.2" d="M246.352 198.782L253.501 212.968C259.192 212.021 264.678 210.022 269.704 207.063L252.419 202.986C250.657 204.043 248.569 198.377 246.352 198.782Z" fill="black"/>
<path d="M231.699 190.398C235.156 188.3 239.892 187.481 244.37 187.91L248.19 164.863L244.37 157.711L224.657 160.429L203.476 193.012L204.134 194.006L227.478 195.786C227.857 193.815 229.218 191.916 231.699 190.398Z" fill="#2ECC71"/>
<path opacity="0.7" d="M231.699 190.398C235.156 188.3 239.892 187.481 244.37 187.91L248.19 164.863L244.37 157.711L224.657 160.429L203.476 193.012L204.134 194.006L227.478 195.786C227.857 193.815 229.218 191.916 231.699 190.398Z" fill="black"/>
<path d="M248.191 149.199V145.13L244.371 159.738L244.378 163.807L248.191 149.199Z" fill="#2ECC71"/>
<path opacity="0.7" d="M248.191 149.199V145.13L244.371 159.738L244.378 163.807L248.191 149.199Z" fill="black"/>
<path d="M231.7 162.225C235.157 160.135 239.893 159.308 244.371 159.737L248.191 145.13C226.874 143.088 206.858 151.901 203.484 164.831C203.386 165.197 203.28 165.698 203.22 166.063L227.487 167.613C227.858 165.642 229.219 163.735 231.7 162.225Z" fill="#2ECC71"/>
<path opacity="0.6" d="M231.7 162.225C235.157 160.135 239.893 159.308 244.371 159.737L248.191 145.13C226.874 143.088 206.858 151.901 203.484 164.831C203.386 165.197 203.28 165.698 203.22 166.063L227.487 167.613C227.858 165.642 229.219 163.735 231.7 162.225Z" fill="black"/>
<path d="M227.487 184.231V167.613L203.22 166.064V182.681L227.487 184.231Z" fill="#2ECC71"/>
<path opacity="0.8" d="M227.487 184.231V167.613L203.22 166.064V182.681L227.487 184.231Z" fill="black"/>
<path d="M252.442 166.294C255.377 168.082 256.799 170.426 256.716 172.763L281.142 173.025C281.49 161.065 267.67 151.075 248.191 149.183L244.371 163.79C247.199 164.017 249.95 164.87 252.442 166.294Z" fill="#2ECC71"/>
<path opacity="0.8" d="M252.442 166.294C255.377 168.082 256.799 170.426 256.716 172.763L281.142 173.025C281.49 161.065 267.67 151.075 248.191 149.183L244.371 163.79C247.199 164.017 249.95 164.87 252.442 166.294Z" fill="white"/>
<path d="M256.716 172.763V190.462L281.142 190.724V173.025L256.716 172.763Z" fill="#2ECC71"/>
<path opacity="0.6" d="M256.716 172.763V190.462L281.142 190.724V173.025L256.716 172.763Z" fill="white"/>
<path d="M256.724 172.763V190.326C256.724 188.053 255.302 185.773 252.442 184.032C250.173 182.649 247.329 188.236 244.378 187.95V163.807C251.05 164.403 256.845 167.939 256.724 172.763Z" fill="#2ECC71"/>
<path opacity="0.6" d="M256.724 172.763V190.326C256.724 188.053 255.302 185.773 252.442 184.032C250.173 182.649 247.329 188.236 244.378 187.95V163.807C251.05 164.403 256.845 167.939 256.724 172.763Z" fill="white"/>
<path d="M256.731 180.647H227.411V201.357H256.731V180.647Z" fill="#E0E0E0"/>
<path d="M231.7 187.044C225.973 183.571 225.973 177.936 231.7 174.463C237.426 170.991 246.715 170.991 252.442 174.463C258.168 177.936 258.16 183.571 252.442 187.044C246.723 190.517 237.426 190.517 231.7 187.044Z" fill="#FAFAFA"/>
<path d="M256.717 190.462C256.641 192.679 255.204 201.286 252.443 202.97L269.728 207.047C277.292 202.47 280.984 197.185 281.165 190.708L256.717 190.462Z" fill="#37474F"/>
<path d="M281.142 176.903V190.724L269.705 207.063V193.251L281.142 176.903Z" fill="#37474F"/>
<path d="M256.717 176.641C256.641 178.859 255.204 181.06 252.443 182.753L269.728 193.235C277.292 188.658 280.984 183.373 281.165 176.896L256.717 176.641Z" fill="#455A64"/>
<path d="M269.705 193.251V207.063L252.42 196.581L252.442 182.753L269.705 193.251Z" fill="#263238"/>
<path d="M269.705 197.614L253.501 203.519V212.968L269.705 207.063V197.614Z" fill="#2ECC71"/>
<path opacity="0.2" d="M269.705 197.614L253.501 203.519V212.968L269.705 207.063V197.614Z" fill="black"/>
<path d="M246.352 189.333L253.501 203.519C259.192 202.572 264.678 200.572 269.704 197.614L252.419 187.147C250.531 188.235 248.479 188.974 246.352 189.333Z" fill="#2ECC71"/>
<path d="M246.345 189.333V193.64L253.501 212.968V203.519L246.345 189.333Z" fill="#2ECC71"/>
<path opacity="0.4" d="M246.345 189.333V193.64L253.501 212.968V203.519L246.345 189.333Z" fill="black"/>
<path d="M235.157 201.452C231.919 199.482 227.055 198.377 227.487 195.81L203 183.468C203 183.468 203 189.587 203 190.438C203.053 202.358 217.955 212.634 237.994 213.906C243.179 214.281 248.388 213.976 253.501 213V206.078C248.486 206.968 239.121 203.837 235.157 201.452Z" fill="#2ECC71"/>
<path opacity="0.5" d="M235.157 201.452C231.919 199.482 227.055 198.377 227.487 195.81L203 183.468C203 183.468 203 189.587 203 190.438C203.053 202.358 217.955 212.634 237.994 213.906C243.179 214.281 248.388 213.976 253.501 213V206.078C248.486 206.968 239.121 203.837 235.157 201.452Z" fill="black"/>
<path d="M231.7 189.643C228.463 187.68 227.056 185.018 227.487 182.451L203.22 180.901C200.95 193.919 216.533 205.585 238.017 206.952C243.202 207.323 248.41 207.019 253.524 206.046L246.375 191.86C241.337 192.782 235.664 192.051 231.7 189.643Z" fill="#2ECC71"/>
<path opacity="0.3" d="M231.7 189.643C228.463 187.68 227.056 185.018 227.487 182.451L203.22 180.901C200.95 193.919 216.533 205.585 238.017 206.952C243.202 207.323 248.41 207.019 253.524 206.046L246.375 191.86C241.337 192.782 235.664 192.051 231.7 189.643Z" fill="black"/>
<path opacity="0.4" d="M57.5149 227.97C57.8009 211.326 58.8914 194.709 60.7822 178.189L60.7825 178.186C61.7795 169.042 63.2967 156.79 66.5883 145.559C69.8864 134.306 74.9325 124.2 82.9032 119.212C86.9027 116.709 90.2143 116.001 92.9587 116.413C95.7028 116.826 97.9635 118.371 99.8362 120.541C103.602 124.905 105.689 131.668 106.859 136.208L106.859 136.209C107.654 139.265 109.314 141.168 111.47 141.887C113.608 142.6 116.106 142.107 118.503 140.65C123.3 137.735 127.891 130.868 129.016 121.055C129.38 117.883 129.721 113.609 130.118 108.62C130.944 98.2566 132.016 84.8091 134.051 71.7472C135.556 62.0865 137.583 52.682 140.414 44.9575C143.252 37.2133 146.865 31.2515 151.482 28.3583C156.154 25.4303 159.954 25.0416 163.065 26.1196C166.202 27.2064 168.749 29.8205 170.819 33.1234C174.499 38.9955 176.539 46.8232 177.715 51.337C177.864 51.9079 177.999 52.4258 178.122 52.88L178.122 52.8814C179.215 56.8795 180.841 59.6594 182.774 61.3885C184.717 63.1265 186.948 63.7802 189.173 63.5548C193.589 63.1076 197.857 59.2301 199.945 53.897C201.95 48.7744 205.619 45.738 209.156 45.6407C212.635 45.5449 216.335 48.3022 218.41 55.5493C218.861 57.1242 219.298 58.7401 219.733 60.3505C220.303 62.458 220.87 64.5562 221.463 66.541C222.514 70.058 223.674 73.3184 225.146 75.8558C226.616 78.3904 228.441 80.2776 230.853 80.9197C233.271 81.5631 236.137 80.9197 239.603 78.7183L239.603 78.7182C245.733 74.8217 247.396 69.3091 248.968 64.0967L248.982 64.0502C250.563 58.8054 252.063 53.8931 257.701 50.7099C259.254 49.8431 261.605 49.6412 263.75 50.9251C265.886 52.204 267.905 55.0135 268.652 60.3333C270.028 71.6754 270.637 83.1115 270.474 94.5499L57.5149 227.97Z" fill="#176639" stroke="#2ECC71"/>
<defs>
<linearGradient id="paint0_linear_141_1399" x1="163.196" y1="73.8469" x2="162.98" y2="314.506" gradientUnits="userSpaceOnUse">
<stop stop-color="#092615" stop-opacity="0.4"/>
<stop offset="1" stop-color="#208C4E" stop-opacity="0.4"/>
</linearGradient>
</defs>
</svg>
