<svg width="200" height="240" viewBox="0 0 200 240" fill="none" xmlns="http://www.w3.org/2000/svg">
<path d="M183.121 56.1912L191.56 61.1253V75.9587L183.121 71.0142V56.1912Z" fill="#263238"/>
<path d="M176.646 20.441L149.343 36.4202V4.42054C149.367 3.64438 149.183 2.87608 148.81 2.19781C148.437 1.51955 147.89 0.956821 147.226 0.56983C146.562 0.182838 145.807 -0.0138611 145.041 0.00075954C144.275 0.0153801 143.528 0.240773 142.879 0.652837L7.83872 79.7333C2.6163 82.83 0 86.7835 0 90.7887V224.238C0 228.243 2.6163 232.248 7.83872 235.303L8.02197 235.417C18.4668 241.528 35.3863 241.528 45.8311 235.417L180.84 156.367C181.493 155.931 182.035 155.346 182.426 154.66C182.816 153.974 183.044 153.205 183.09 152.414V21.5971L180.973 20.3584C180.295 20.0305 179.551 19.8673 178.8 19.8816C178.049 19.8959 177.312 20.0875 176.646 20.441Z" fill="url(#paint0_linear_141_1339)"/>
<path d="M7.83825 101.806C-2.56588 95.7261 -2.56588 85.7649 7.83825 79.6849L142.878 0.645649C143.547 0.28469 144.29 0.0890547 145.047 0.0747036C145.804 0.0603524 146.554 0.22769 147.235 0.563067C148.396 1.24435 148.335 2.39015 147.093 3.11272L15.8297 79.9843C14.5877 80.7172 12.5517 81.8733 11.4013 82.7507C5.29321 87.3855 4.76385 93.5687 10.0066 97.9454C11.3835 99.012 12.8845 99.903 14.4757 100.598C22.009 103.788 32.8 103.468 40.8118 99.8035C42.1251 99.2047 44.1305 98.0073 45.3725 97.2848L176.697 20.4339C177.366 20.0753 178.109 19.881 178.866 19.8667C179.622 19.8523 180.372 20.0183 181.054 20.3513C182.224 21.0326 182.163 22.1784 180.921 22.9113L45.8306 101.961C35.4265 108.051 18.4256 108.051 8.0215 101.961L7.83825 101.806Z" fill="url(#paint1_linear_141_1339)"/>
<path opacity="0.3" d="M7.83825 101.806C-2.56588 95.7261 -2.56588 85.7649 7.83825 79.6849L142.878 0.645649C143.547 0.28469 144.29 0.0890547 145.047 0.0747036C145.804 0.0603524 146.554 0.22769 147.235 0.563067C148.396 1.24435 148.335 2.39015 147.093 3.11272L15.8297 79.9843C14.5877 80.7172 12.5517 81.8733 11.4013 82.7507C5.29321 87.3855 4.76385 93.5687 10.0066 97.9454C11.3835 99.012 12.8845 99.903 14.4757 100.598C22.009 103.788 32.8 103.468 40.8118 99.8035C42.1251 99.2047 44.1305 98.0073 45.3725 97.2848L176.697 20.4339C177.366 20.0753 178.109 19.881 178.866 19.8667C179.622 19.8523 180.372 20.0183 181.054 20.3513C182.224 21.0326 182.163 22.1784 180.921 22.9113L45.8306 101.961C35.4265 108.051 18.4256 108.051 8.0215 101.961L7.83825 101.806Z" fill="black"/>
<path d="M4.44861 109.815C4.32585 109.815 4.20709 109.771 4.11266 109.691C3.45043 109.108 2.83434 108.473 2.27005 107.792C2.18365 107.687 2.14209 107.551 2.1545 107.414C2.16691 107.278 2.23228 107.152 2.33623 107.064C2.44017 106.977 2.57419 106.934 2.70879 106.947C2.84338 106.96 2.96753 107.026 3.05393 107.131C3.58364 107.769 4.16232 108.362 4.78455 108.907C4.88558 108.998 4.94744 109.126 4.95695 109.263C4.96646 109.4 4.92286 109.535 4.83546 109.64C4.78638 109.694 4.72668 109.738 4.66011 109.768C4.59355 109.799 4.52153 109.814 4.44861 109.815Z" fill="#F5F5F5"/>
<path d="M28.5658 116.911C28.4343 116.911 28.3078 116.86 28.2129 116.767C28.118 116.675 28.0621 116.549 28.0568 116.416C28.0541 116.347 28.0649 116.278 28.0886 116.214C28.1123 116.15 28.1485 116.091 28.1949 116.041C28.2414 115.991 28.2973 115.951 28.3592 115.923C28.4211 115.895 28.4879 115.88 28.5556 115.879C30.2595 115.82 31.9589 115.665 33.6457 115.414C33.7119 115.404 33.7794 115.407 33.8444 115.423C33.9095 115.44 33.9707 115.469 34.0246 115.509C34.0785 115.549 34.124 115.6 34.1586 115.658C34.1931 115.716 34.216 115.781 34.226 115.848C34.2437 115.983 34.209 116.12 34.1293 116.23C34.0496 116.339 33.9309 116.413 33.7984 116.436C32.0843 116.689 30.3579 116.847 28.6269 116.911H28.5658ZM23.4757 116.808C21.767 116.675 20.0674 116.44 18.3857 116.106C18.3196 116.095 18.2565 116.07 18.2 116.034C18.1435 115.998 18.0948 115.95 18.0568 115.894C18.0188 115.838 17.9923 115.775 17.9789 115.709C17.9654 115.642 17.9653 115.574 17.9785 115.507C18.0056 115.373 18.0836 115.254 18.1958 115.177C18.3081 115.1 18.4456 115.07 18.5791 115.094C20.237 115.424 21.9129 115.651 23.5979 115.776C23.7329 115.776 23.8624 115.83 23.9578 115.927C24.0533 116.024 24.1069 116.155 24.1069 116.292C24.1069 116.429 24.0533 116.56 23.9578 116.657C23.8624 116.753 23.7329 116.808 23.5979 116.808H23.4757ZM38.746 115.352C38.6345 115.352 38.5264 115.314 38.4381 115.245C38.3498 115.176 38.2863 115.08 38.2573 114.97C38.2388 114.906 38.233 114.839 38.2404 114.772C38.2478 114.705 38.2682 114.641 38.3004 114.582C38.3326 114.524 38.376 114.472 38.428 114.431C38.48 114.389 38.5397 114.359 38.6035 114.341C40.2262 113.878 41.8121 113.292 43.3474 112.586C43.4074 112.557 43.4726 112.54 43.5392 112.536C43.6057 112.533 43.6723 112.543 43.7349 112.566C43.7976 112.589 43.855 112.625 43.9038 112.671C43.9527 112.717 43.992 112.772 44.0193 112.834C44.0485 112.895 44.0653 112.962 44.0688 113.03C44.0723 113.099 44.0624 113.167 44.0397 113.231C44.017 113.296 43.9819 113.355 43.9364 113.405C43.891 113.456 43.8361 113.497 43.775 113.525C42.1903 114.253 40.5534 114.856 38.8783 115.332L38.746 115.352ZM13.4483 114.795C13.3944 114.805 13.3393 114.805 13.2854 114.795C11.6362 114.244 10.0356 113.554 8.50072 112.73C8.3914 112.661 8.31212 112.552 8.2789 112.426C8.24568 112.3 8.26099 112.165 8.32174 112.05C8.38249 111.934 8.48416 111.847 8.60619 111.805C8.72823 111.762 8.86153 111.769 8.97917 111.822C10.465 112.637 12.0142 113.328 13.6112 113.887C13.7462 113.909 13.867 113.984 13.9472 114.096C14.0274 114.208 14.0603 114.348 14.0387 114.485C14.0171 114.622 13.9428 114.745 13.8321 114.826C13.7213 114.907 13.5833 114.941 13.4483 114.919V114.795ZM48.0608 111.079C47.9498 111.078 47.8421 111.04 47.7543 110.971C47.6665 110.902 47.6033 110.806 47.5745 110.697C47.5456 110.588 47.5527 110.473 47.5946 110.368C47.6364 110.264 47.7108 110.176 47.8063 110.119L52.2551 107.518C52.3127 107.475 52.3784 107.445 52.4481 107.43C52.5177 107.415 52.5897 107.415 52.6594 107.43C52.7291 107.445 52.7949 107.474 52.8526 107.517C52.9104 107.559 52.9587 107.613 52.9945 107.676C53.0303 107.738 53.0527 107.807 53.0605 107.879C53.0682 107.951 53.0609 108.024 53.0392 108.092C53.0175 108.161 52.9818 108.225 52.9344 108.279C52.887 108.332 52.829 108.376 52.7641 108.405L48.3153 111.007C48.2292 111.077 48.1207 111.114 48.0099 111.11L48.0608 111.079ZM56.9583 105.918C56.8679 105.918 56.7791 105.894 56.7005 105.849C56.622 105.804 56.5564 105.738 56.5104 105.66C56.4685 105.603 56.4386 105.538 56.4226 105.469C56.4066 105.4 56.4047 105.329 56.4171 105.259C56.4295 105.189 56.456 105.123 56.4948 105.064C56.5336 105.005 56.5839 104.955 56.6427 104.916L61.0813 102.305C61.1988 102.238 61.3376 102.221 61.4674 102.258C61.5971 102.295 61.7072 102.382 61.7735 102.501C61.8079 102.559 61.8306 102.623 61.84 102.69C61.8494 102.757 61.8454 102.826 61.8284 102.891C61.8113 102.957 61.7814 103.018 61.7405 103.072C61.6996 103.125 61.6485 103.17 61.5903 103.203L57.1517 105.804C57.0782 105.85 56.9938 105.875 56.9074 105.876L56.9583 105.918ZM65.8456 100.756C65.7567 100.756 65.6696 100.732 65.5928 100.687C65.516 100.641 65.4522 100.576 65.4078 100.498C65.3405 100.379 65.322 100.237 65.3563 100.104C65.3905 99.9712 65.4748 99.857 65.5911 99.7861L70.0296 97.1848C70.1492 97.1201 70.2887 97.1044 70.4194 97.1409C70.5501 97.1774 70.662 97.2633 70.7321 97.381C70.798 97.5001 70.8147 97.6409 70.7784 97.7725C70.7421 97.904 70.6559 98.0157 70.5386 98.0829L66.1001 100.684C66.0031 100.712 65.8997 100.709 65.8049 100.674L65.8456 100.756ZM74.7329 95.5952C74.644 95.5946 74.5569 95.5705 74.4801 95.5253C74.4033 95.48 74.3395 95.4151 74.2951 95.3371C74.2278 95.2177 74.2093 95.0762 74.2436 94.9431C74.2778 94.81 74.3621 94.6958 74.4783 94.6249L78.9271 92.0236C78.9849 91.9891 79.049 91.9668 79.1156 91.9579C79.1821 91.9491 79.2497 91.954 79.3144 91.9724C79.379 91.9907 79.4393 92.022 79.4917 92.0645C79.5441 92.107 79.5875 92.1598 79.6194 92.2197C79.6861 92.3376 79.7044 92.4775 79.6701 92.6089C79.6357 92.7403 79.5517 92.8527 79.4361 92.9217L74.967 95.3991C74.88 95.4484 74.7816 95.4734 74.682 95.4713L74.7329 95.5952ZM83.6201 90.4339C83.5309 90.4356 83.4429 90.4124 83.3657 90.3669C83.2886 90.3214 83.2252 90.2553 83.1824 90.1759C83.1156 90.058 83.0974 89.9181 83.1317 89.7867C83.166 89.6553 83.2501 89.5429 83.3656 89.4739L87.8144 86.8727C87.8716 86.8378 87.9352 86.8148 88.0013 86.8053C88.0674 86.7957 88.1347 86.7997 88.1993 86.8171C88.2638 86.8344 88.3243 86.8647 88.3771 86.9062C88.4299 86.9476 88.4739 86.9994 88.5066 87.0585C88.5739 87.1779 88.5924 87.3194 88.5582 87.4525C88.5239 87.5856 88.4396 87.6998 88.3234 87.7707L83.8746 90.372C83.7639 90.3663 83.6574 90.3267 83.5693 90.2585L83.6201 90.4339ZM92.5074 85.2727C92.3964 85.2716 92.2887 85.2336 92.2009 85.1646C92.1131 85.0956 92.0499 84.9994 92.0211 84.8906C91.9922 84.7818 91.9993 84.6664 92.0412 84.5621C92.083 84.4578 92.1574 84.3702 92.2529 84.3127L96.7017 81.7115C96.7589 81.6765 96.8224 81.6536 96.8885 81.6441C96.9547 81.6345 97.022 81.6385 97.0866 81.6558C97.1511 81.6732 97.2116 81.7035 97.2644 81.7449C97.3172 81.7864 97.3612 81.8382 97.3939 81.8972C97.4612 82.0167 97.4797 82.1581 97.4454 82.2912C97.4112 82.4244 97.3269 82.5386 97.2107 82.6095L92.7619 85.2108C92.6465 85.1933 92.5395 85.1391 92.4565 85.0559L92.5074 85.2727ZM101.405 80.1115C101.294 80.1103 101.186 80.0723 101.098 80.0033C101.011 79.9344 100.947 79.8381 100.919 79.7293C100.89 79.6206 100.897 79.5052 100.939 79.4009C100.98 79.2965 101.055 79.2089 101.15 79.1515L105.589 76.5502C105.704 76.4976 105.834 76.49 105.954 76.529C106.074 76.5679 106.175 76.6507 106.239 76.7611C106.302 76.8716 106.323 77.0019 106.297 77.127C106.271 77.252 106.2 77.3628 106.098 77.4379L101.659 80.0495C101.54 80.0188 101.433 79.9501 101.354 79.8534L101.405 80.1115ZM110.292 74.9502C110.202 74.9494 110.114 74.9253 110.035 74.8802C109.957 74.835 109.891 74.7703 109.844 74.6922C109.781 74.5725 109.766 74.4326 109.802 74.3018C109.838 74.171 109.922 74.0593 110.038 73.9902L114.476 71.389C114.534 71.3465 114.6 71.3167 114.669 71.3017C114.739 71.2866 114.811 71.2865 114.881 71.3014C114.95 71.3162 115.016 71.3458 115.074 71.3881C115.132 71.4304 115.18 71.4845 115.216 71.547C115.251 71.6094 115.274 71.6788 115.282 71.7505C115.289 71.8223 115.282 71.895 115.26 71.9638C115.239 72.0325 115.203 72.0959 115.156 72.1498C115.108 72.2037 115.05 72.247 114.985 72.2767L110.547 74.878C110.483 74.8632 110.423 74.8354 110.371 74.7964C110.318 74.7573 110.274 74.7078 110.241 74.6509L110.292 74.9502ZM119.179 69.789C119.068 69.7878 118.961 69.7499 118.873 69.6809C118.785 69.6119 118.722 69.5157 118.693 69.4069C118.664 69.2981 118.671 69.1827 118.713 69.0784C118.755 68.974 118.829 68.8865 118.925 68.829L123.364 66.2277C123.481 66.1595 123.621 66.1407 123.752 66.1755C123.883 66.2102 123.996 66.2956 124.066 66.4135C124.132 66.5327 124.149 66.6735 124.112 66.805C124.076 66.9366 123.99 67.0482 123.873 67.1155L119.434 69.7167C119.367 69.6973 119.305 69.6632 119.252 69.6168C119.199 69.5705 119.157 69.513 119.129 69.4483L119.179 69.789ZM128.067 64.6277C127.956 64.6266 127.848 64.5886 127.76 64.5196C127.672 64.4506 127.609 64.3544 127.58 64.2456C127.552 64.1369 127.559 64.0215 127.6 63.9172C127.642 63.8128 127.717 63.7252 127.812 63.6678L132.261 61.0562C132.379 60.992 132.517 60.9766 132.646 61.0131C132.775 61.0497 132.885 61.1354 132.953 61.2523C132.988 61.3103 133.01 61.3748 133.02 61.4418C133.029 61.5088 133.025 61.5771 133.008 61.6426C132.991 61.708 132.961 61.7693 132.92 61.8229C132.879 61.8764 132.828 61.9211 132.77 61.9542L128.321 64.5555C128.249 64.5333 128.184 64.4935 128.13 64.4394C128.077 64.3854 128.038 64.3189 128.016 64.2458L128.067 64.6277ZM136.954 59.4665C136.865 59.466 136.778 59.4419 136.701 59.3966C136.624 59.3513 136.561 59.2865 136.516 59.2084C136.449 59.089 136.43 58.9476 136.465 58.8144C136.499 58.6813 136.583 58.5671 136.7 58.4962L141.138 55.4717C141.256 55.4075 141.394 55.3921 141.523 55.4287C141.652 55.4652 141.762 55.5509 141.83 55.6678C141.865 55.7259 141.887 55.7903 141.897 55.8573C141.906 55.9244 141.902 55.9926 141.885 56.0581C141.868 56.1236 141.838 56.1849 141.797 56.2384C141.756 56.292 141.705 56.3366 141.647 56.3698L137.198 58.971C137.111 59.0284 137.007 59.0539 136.903 59.0433L136.954 59.4665ZM145.841 54.3053C145.752 54.3047 145.665 54.2806 145.589 54.2353C145.512 54.1901 145.448 54.1252 145.404 54.0472C145.336 53.9277 145.318 53.7863 145.352 53.6532C145.386 53.5201 145.471 53.4059 145.587 53.335L150.036 50.7337C150.093 50.6988 150.156 50.6759 150.222 50.6663C150.289 50.6568 150.356 50.6608 150.42 50.6781C150.485 50.6954 150.545 50.7257 150.598 50.7672C150.651 50.8086 150.695 50.8604 150.728 50.9195C150.795 51.039 150.814 51.1804 150.779 51.3135C150.745 51.4466 150.661 51.5608 150.545 51.6317L146.096 54.233C146.019 54.1956 145.951 54.1408 145.898 54.0728C145.845 54.0048 145.808 53.9254 145.79 53.8408L145.841 54.3053ZM154.739 49.144C154.648 49.1443 154.56 49.1206 154.481 49.0753C154.402 49.0301 154.337 48.9648 154.291 48.886C154.225 48.7668 154.208 48.626 154.245 48.4945C154.281 48.3629 154.367 48.2513 154.484 48.184L158.923 45.5828C158.98 45.5478 159.044 45.5249 159.11 45.5154C159.176 45.5058 159.243 45.5098 159.308 45.5272C159.372 45.5445 159.433 45.5748 159.486 45.6163C159.538 45.6577 159.582 45.7095 159.615 45.7686C159.682 45.888 159.701 46.0295 159.667 46.1626C159.632 46.2957 159.548 46.4099 159.432 46.4808L154.993 49.0821C154.91 49.0373 154.838 48.9725 154.785 48.8934C154.732 48.8142 154.698 48.7231 154.688 48.6279L154.739 49.144ZM163.626 43.9828C163.536 43.982 163.447 43.9579 163.369 43.9127C163.291 43.8676 163.225 43.8029 163.178 43.7247C163.115 43.605 163.1 43.4651 163.136 43.3343C163.172 43.2035 163.256 43.0919 163.372 43.0228L167.81 40.4215C167.928 40.3531 168.067 40.3348 168.198 40.3706C168.329 40.4064 168.44 40.4934 168.507 40.6125C168.575 40.7316 168.593 40.873 168.558 41.0056C168.522 41.1382 168.437 41.2511 168.319 41.3196L163.881 43.9209C163.784 43.878 163.701 43.8092 163.64 43.7219C163.579 43.6346 163.542 43.5321 163.534 43.4254L163.626 43.9828Z" fill="#F5F5F5"/>
<path d="M174.672 39.5118C174.538 39.5092 174.41 39.454 174.315 39.3577C174.22 39.2615 174.165 39.1318 174.163 38.9957V37.3028L172.727 38.1493C172.67 38.1842 172.607 38.2071 172.541 38.2167C172.474 38.2262 172.407 38.2222 172.343 38.2049C172.278 38.1875 172.217 38.1572 172.165 38.1158C172.112 38.0743 172.068 38.0225 172.035 37.9635C171.968 37.844 171.949 37.7026 171.984 37.5695C172.018 37.4364 172.102 37.3221 172.218 37.2512L174.417 35.9609C174.495 35.9153 174.584 35.8914 174.674 35.8917C174.764 35.892 174.852 35.9165 174.929 35.9627C175.007 36.0088 175.071 36.075 175.115 36.1545C175.159 36.234 175.182 36.3239 175.181 36.4151V38.9957C175.181 39.1326 175.127 39.2639 175.032 39.3607C174.936 39.4575 174.807 39.5118 174.672 39.5118Z" fill="#F5F5F5"/>
<path d="M174.671 142.867C174.537 142.864 174.409 142.809 174.314 142.712C174.219 142.616 174.165 142.486 174.162 142.35V137.189C174.162 137.052 174.216 136.921 174.311 136.824C174.407 136.727 174.536 136.673 174.671 136.673C174.806 136.673 174.936 136.727 175.031 136.824C175.126 136.921 175.18 137.052 175.18 137.189V142.35C175.18 142.487 175.126 142.619 175.031 142.715C174.936 142.812 174.806 142.867 174.671 142.867ZM174.671 132.544C174.536 132.544 174.407 132.49 174.311 132.393C174.216 132.296 174.162 132.165 174.162 132.028V126.867C174.165 126.731 174.219 126.601 174.314 126.505C174.409 126.408 174.537 126.353 174.671 126.351C174.806 126.351 174.936 126.405 175.031 126.502C175.126 126.599 175.18 126.73 175.18 126.867V132.028C175.175 132.161 175.119 132.287 175.024 132.38C174.929 132.472 174.803 132.523 174.671 132.523V132.544ZM174.671 122.222C174.537 122.219 174.409 122.164 174.314 122.067C174.219 121.971 174.165 121.841 174.162 121.705V116.544C174.162 116.407 174.216 116.276 174.311 116.179C174.407 116.082 174.536 116.028 174.671 116.028C174.806 116.028 174.936 116.082 175.031 116.179C175.126 116.276 175.18 116.407 175.18 116.544V121.705C175.172 121.837 175.115 121.96 175.021 122.051C174.926 122.141 174.801 122.191 174.671 122.191V122.222ZM174.671 111.899C174.536 111.899 174.407 111.845 174.311 111.748C174.216 111.651 174.162 111.52 174.162 111.383V106.222C174.162 106.085 174.216 105.954 174.311 105.857C174.407 105.76 174.536 105.706 174.671 105.706C174.806 105.706 174.936 105.76 175.031 105.857C175.126 105.954 175.18 106.085 175.18 106.222V111.383C175.167 111.511 175.108 111.629 175.014 111.715C174.92 111.801 174.798 111.848 174.671 111.847V111.899ZM174.671 101.577C174.536 101.577 174.407 101.522 174.311 101.425C174.216 101.329 174.162 101.197 174.162 101.06V95.8993C174.165 95.7632 174.219 95.6334 174.314 95.5372C174.409 95.441 174.537 95.3858 174.671 95.3831C174.806 95.3831 174.936 95.4375 175.031 95.5343C175.126 95.6311 175.18 95.7624 175.18 95.8993V101.06C175.165 101.186 175.105 101.302 175.011 101.386C174.917 101.47 174.796 101.516 174.671 101.515V101.577ZM174.671 91.2541C174.537 91.2515 174.409 91.1963 174.314 91.1C174.219 91.0038 174.165 90.8741 174.162 90.738V85.5768C174.162 85.4399 174.216 85.3086 174.311 85.2118C174.407 85.115 174.536 85.0607 174.671 85.0607C174.806 85.0607 174.936 85.115 175.031 85.2118C175.126 85.3086 175.18 85.4399 175.18 85.5768V90.738C175.163 90.862 175.102 90.9754 175.008 91.0571C174.914 91.1388 174.795 91.1831 174.671 91.1819V91.2541ZM174.671 80.9317C174.536 80.9317 174.407 80.8773 174.311 80.7805C174.216 80.6837 174.162 80.5524 174.162 80.4155V75.2543C174.162 75.1174 174.216 74.9861 174.311 74.8894C174.407 74.7926 174.536 74.7382 174.671 74.7382C174.806 74.7382 174.936 74.7926 175.031 74.8894C175.126 74.9861 175.18 75.1174 175.18 75.2543V80.4155C175.158 80.5358 175.095 80.6443 175.002 80.7218C174.909 80.7993 174.792 80.8408 174.671 80.8388V80.9317ZM174.671 70.6092C174.537 70.6065 174.409 70.5513 174.314 70.4551C174.219 70.3589 174.165 70.2291 174.162 70.0931V64.9318C174.162 64.7949 174.216 64.6637 174.311 64.5669C174.407 64.4701 174.536 64.4157 174.671 64.4157C174.806 64.4157 174.936 64.4701 175.031 64.5669C175.126 64.6637 175.18 64.7949 175.18 64.9318V70.0931C175.156 70.2114 175.092 70.3175 174.999 70.393C174.906 70.4684 174.79 70.5084 174.671 70.506V70.6092ZM174.671 60.2867C174.536 60.2867 174.407 60.2323 174.311 60.1355C174.216 60.0388 174.162 59.9075 174.162 59.7706V54.6094C174.162 54.4725 174.216 54.3412 174.311 54.2444C174.407 54.1476 174.536 54.0932 174.671 54.0932C174.806 54.0932 174.936 54.1476 175.031 54.2444C175.126 54.3412 175.18 54.4725 175.18 54.6094V59.7706C175.152 59.8851 175.087 59.9865 174.994 60.0579C174.901 60.1292 174.787 60.1663 174.671 60.1628V60.2867ZM174.671 49.9642C174.536 49.9642 174.407 49.9099 174.311 49.8131C174.216 49.7163 174.162 49.585 174.162 49.4481V44.2869C174.165 44.1508 174.219 44.0211 174.314 43.9249C174.409 43.8286 174.537 43.7734 174.671 43.7708C174.806 43.7708 174.936 43.8251 175.031 43.9219C175.126 44.0187 175.18 44.15 175.18 44.2869V49.4481C175.15 49.5607 175.084 49.6598 174.991 49.7291C174.899 49.7985 174.786 49.834 174.671 49.83V49.9642Z" fill="#F5F5F5"/>
<path d="M172.473 151.917C172.361 151.916 172.254 151.878 172.166 151.809C172.078 151.74 172.015 151.643 171.986 151.535C171.957 151.426 171.964 151.31 172.006 151.206C172.048 151.102 172.123 151.014 172.218 150.957L174.162 149.811V147.53C174.165 147.394 174.22 147.264 174.314 147.168C174.409 147.071 174.537 147.016 174.671 147.014C174.806 147.014 174.936 147.068 175.031 147.165C175.127 147.262 175.18 147.393 175.18 147.53V150.11C175.182 150.202 175.159 150.293 175.114 150.372C175.069 150.452 175.004 150.519 174.926 150.564L172.697 151.855C172.627 151.891 172.551 151.912 172.473 151.917Z" fill="#F5F5F5"/>
<path d="M28.5854 230.597C28.4504 230.597 28.3209 230.542 28.2254 230.445C28.13 230.349 28.0763 230.217 28.0763 230.08C28.0763 229.944 28.13 229.812 28.2254 229.715C28.3209 229.619 28.4504 229.564 28.5854 229.564C30.2898 229.507 31.9894 229.349 33.6754 229.089C33.8087 229.072 33.9436 229.107 34.0518 229.188C34.1601 229.268 34.2331 229.389 34.2557 229.523C34.2658 229.59 34.2628 229.659 34.2467 229.725C34.2307 229.79 34.202 229.853 34.1623 229.907C34.1226 229.962 34.0726 230.008 34.0153 230.043C33.9579 230.078 33.8943 230.101 33.8281 230.111C32.1148 230.373 30.3881 230.535 28.6566 230.597H28.5854ZM23.4953 230.493C21.7696 230.361 20.0531 230.126 18.3543 229.791C18.2222 229.766 18.1053 229.689 18.029 229.577C17.9527 229.465 17.9233 229.327 17.9471 229.193C17.9742 229.058 18.0522 228.939 18.1644 228.862C18.2767 228.785 18.4142 228.755 18.5477 228.78C20.2058 229.108 21.8817 229.335 23.5665 229.461C23.7015 229.461 23.831 229.515 23.9265 229.612C24.0219 229.709 24.0755 229.84 24.0755 229.977C24.0755 230.114 24.0219 230.245 23.9265 230.342C23.831 230.439 23.7015 230.493 23.5665 230.493H23.4953ZM38.7655 229.028C38.655 229.029 38.547 228.994 38.4585 228.926C38.3701 228.859 38.3062 228.764 38.2769 228.656C38.2582 228.591 38.2523 228.523 38.2595 228.455C38.2668 228.388 38.2871 228.323 38.3192 228.263C38.3513 228.204 38.3947 228.151 38.4468 228.109C38.499 228.067 38.5588 228.035 38.623 228.016C40.2463 227.555 41.8323 226.968 43.367 226.261C43.4276 226.232 43.4934 226.216 43.5604 226.213C43.6274 226.21 43.6943 226.221 43.757 226.245C43.8197 226.269 43.877 226.306 43.9254 226.353C43.9739 226.4 44.0124 226.457 44.0388 226.519C44.0678 226.58 44.0845 226.646 44.0879 226.714C44.0913 226.781 44.0813 226.849 44.0585 226.912C44.0357 226.976 44.0006 227.034 43.9553 227.083C43.91 227.133 43.8553 227.173 43.7945 227.2C42.2134 227.928 40.5798 228.532 38.908 229.007C38.8435 229.033 38.7729 229.04 38.7044 229.028H38.7655ZM13.4678 228.48C13.4139 228.49 13.3588 228.49 13.3049 228.48C11.6566 227.927 10.0562 227.237 8.52024 226.416C8.41092 226.347 8.33165 226.238 8.29843 226.111C8.26521 225.985 8.28052 225.851 8.34127 225.735C8.40203 225.62 8.50369 225.532 8.62573 225.49C8.74776 225.448 8.88106 225.454 8.99871 225.508C10.4866 226.318 12.0354 227.009 13.6307 227.572C13.6975 227.583 13.7616 227.607 13.8193 227.643C13.8769 227.679 13.9271 227.726 13.9668 227.782C14.0065 227.837 14.035 227.9 14.0507 227.967C14.0664 228.034 14.0689 228.103 14.0582 228.171C14.0476 228.239 14.0238 228.304 13.9883 228.362C13.9529 228.42 13.9064 228.471 13.8516 228.512C13.7967 228.552 13.7346 228.581 13.6688 228.597C13.6029 228.613 13.5346 228.615 13.4678 228.604V228.48ZM48.0804 224.754C47.9693 224.753 47.8616 224.715 47.7738 224.646C47.686 224.577 47.6228 224.481 47.594 224.372C47.5652 224.263 47.5722 224.148 47.6141 224.043C47.6559 223.939 47.7303 223.852 47.8259 223.794L52.2746 221.193C52.3894 221.14 52.5194 221.133 52.6394 221.172C52.7594 221.211 52.8609 221.293 52.9243 221.404C52.9876 221.514 53.0083 221.645 52.9823 221.77C52.9563 221.895 52.8855 222.005 52.7836 222.081L48.2738 224.64C48.2026 224.704 48.1137 224.744 48.0193 224.754H48.0804ZM56.9778 219.593C56.8873 219.594 56.798 219.571 56.7193 219.525C56.6405 219.48 56.5752 219.414 56.5299 219.335C56.4959 219.276 56.4738 219.211 56.4652 219.144C56.4565 219.076 56.4613 219.008 56.4794 218.942C56.4974 218.877 56.5283 218.815 56.5703 218.762C56.6122 218.709 56.6642 218.665 56.7233 218.633L61.1619 216.032C61.2195 215.989 61.2852 215.959 61.3549 215.944C61.4245 215.929 61.4965 215.929 61.5662 215.944C61.6359 215.959 61.7017 215.988 61.7595 216.031C61.8172 216.073 61.8655 216.127 61.9013 216.19C61.9371 216.252 61.9596 216.321 61.9673 216.393C61.975 216.465 61.9677 216.538 61.946 216.606C61.9243 216.675 61.8886 216.739 61.8412 216.792C61.7938 216.846 61.7358 216.89 61.6709 216.919L57.1713 219.479C57.0948 219.527 57.0066 219.552 56.9168 219.552L56.9778 219.593ZM65.8651 214.432C65.7748 214.432 65.6859 214.408 65.6074 214.363C65.5288 214.318 65.4632 214.252 65.4172 214.173C65.3512 214.054 65.3346 213.914 65.3708 213.782C65.4071 213.65 65.4933 213.539 65.6106 213.472L70.0492 210.86C70.1687 210.795 70.3083 210.78 70.4389 210.816C70.5696 210.853 70.6815 210.938 70.7516 211.056C70.8149 211.176 70.8301 211.316 70.794 211.446C70.758 211.577 70.6735 211.689 70.5582 211.758L66.0585 214.318C65.9753 214.341 65.8873 214.341 65.804 214.318L65.8651 214.432ZM74.7524 209.27C74.6636 209.27 74.5764 209.246 74.4996 209.2C74.4229 209.155 74.359 209.09 74.3146 209.012C74.2473 208.893 74.2289 208.751 74.2631 208.618C74.2973 208.485 74.3816 208.371 74.4979 208.3L78.9364 205.699C79.0555 205.631 79.1959 205.614 79.3273 205.651C79.4587 205.688 79.5706 205.775 79.6389 205.895C79.7048 206.014 79.7215 206.155 79.6852 206.286C79.649 206.418 79.5627 206.53 79.4454 206.597L74.9662 209.074C74.885 209.13 74.7891 209.158 74.6913 209.157L74.7524 209.27ZM83.6397 204.109C83.5508 204.109 83.4637 204.084 83.3869 204.039C83.3101 203.994 83.2463 203.929 83.2019 203.851C83.1346 203.732 83.1161 203.59 83.1504 203.457C83.1846 203.324 83.2689 203.21 83.3852 203.139L87.8339 200.537C87.9514 200.469 88.0908 200.451 88.2216 200.487C88.3524 200.522 88.4638 200.609 88.5313 200.728C88.5988 200.848 88.6168 200.989 88.5815 201.122C88.5462 201.254 88.4604 201.367 88.3429 201.436L83.8942 204.037C83.7873 204.054 83.6776 204.04 83.5786 203.996L83.6397 204.109ZM92.527 198.896C92.4377 198.898 92.3497 198.875 92.2726 198.829C92.1954 198.784 92.132 198.718 92.0892 198.638C92.0224 198.52 92.0042 198.38 92.0385 198.249C92.0728 198.118 92.1569 198.005 92.2725 197.936L96.7212 195.335C96.8386 195.267 96.9781 195.248 97.1089 195.284C97.2397 195.32 97.351 195.407 97.4185 195.526C97.486 195.645 97.5041 195.786 97.4688 195.919C97.4335 196.052 97.3476 196.165 97.2302 196.233L92.7815 198.834C92.6683 198.834 92.5581 198.798 92.4659 198.731L92.527 198.896ZM101.414 193.735C101.325 193.734 101.238 193.71 101.161 193.665C101.085 193.62 101.021 193.555 100.976 193.477C100.91 193.359 100.892 193.219 100.926 193.088C100.96 192.956 101.044 192.844 101.16 192.775L105.608 190.174C105.666 190.131 105.732 190.101 105.801 190.086C105.871 190.071 105.943 190.071 106.013 190.086C106.083 190.101 106.148 190.131 106.206 190.173C106.264 190.215 106.312 190.269 106.348 190.332C106.384 190.394 106.406 190.463 106.414 190.535C106.422 190.607 106.414 190.68 106.393 190.748C106.371 190.817 106.335 190.881 106.288 190.935C106.24 190.988 106.182 191.032 106.117 191.061L101.669 193.673C101.55 193.663 101.439 193.612 101.353 193.529L101.414 193.735ZM110.312 188.574C110.201 188.573 110.093 188.535 110.005 188.466C109.917 188.397 109.854 188.3 109.825 188.192C109.797 188.083 109.804 187.967 109.845 187.863C109.887 187.759 109.962 187.671 110.057 187.614L114.496 185.012C114.553 184.97 114.619 184.94 114.689 184.925C114.758 184.91 114.83 184.91 114.9 184.925C114.97 184.94 115.036 184.969 115.093 185.012C115.151 185.054 115.199 185.108 115.235 185.17C115.271 185.233 115.293 185.302 115.301 185.374C115.309 185.446 115.302 185.518 115.28 185.587C115.258 185.656 115.222 185.719 115.175 185.773C115.128 185.827 115.07 185.87 115.005 185.9L110.566 188.501C110.443 188.487 110.329 188.424 110.251 188.326L110.312 188.574ZM119.199 183.412C119.088 183.411 118.98 183.373 118.892 183.304C118.805 183.235 118.741 183.139 118.713 183.03C118.684 182.922 118.691 182.806 118.733 182.702C118.775 182.598 118.849 182.51 118.945 182.452L123.383 179.851C123.441 179.809 123.506 179.779 123.576 179.764C123.646 179.749 123.718 179.749 123.787 179.764C123.857 179.778 123.923 179.808 123.981 179.85C124.038 179.893 124.087 179.947 124.122 180.009C124.158 180.072 124.181 180.141 124.188 180.213C124.196 180.285 124.189 180.357 124.167 180.426C124.145 180.495 124.11 180.558 124.062 180.612C124.015 180.666 123.957 180.709 123.892 180.739L119.454 183.34C119.389 183.328 119.328 183.302 119.274 183.265C119.219 183.228 119.173 183.18 119.138 183.123L119.199 183.412ZM128.086 178.251C127.975 178.25 127.868 178.212 127.78 178.143C127.692 178.074 127.629 177.978 127.6 177.869C127.571 177.76 127.578 177.645 127.62 177.541C127.662 177.436 127.736 177.349 127.832 177.291L132.281 174.69C132.338 174.648 132.404 174.618 132.474 174.603C132.543 174.588 132.615 174.587 132.685 174.602C132.755 174.617 132.82 174.647 132.878 174.689C132.936 174.731 132.984 174.786 133.02 174.848C133.056 174.91 133.078 174.98 133.086 175.052C133.094 175.123 133.086 175.196 133.065 175.265C133.043 175.334 133.007 175.397 132.96 175.451C132.912 175.505 132.854 175.548 132.79 175.578L128.341 178.179C128.273 178.162 128.209 178.13 128.155 178.086C128.1 178.041 128.056 177.985 128.025 177.921L128.086 178.251ZM136.974 173.09C136.885 173.089 136.798 173.065 136.721 173.02C136.644 172.975 136.58 172.91 136.536 172.832C136.469 172.712 136.45 172.571 136.484 172.438C136.519 172.305 136.603 172.191 136.719 172.12L141.168 169.518C141.286 169.454 141.424 169.439 141.553 169.475C141.682 169.512 141.792 169.598 141.86 169.715C141.894 169.773 141.917 169.837 141.927 169.904C141.936 169.971 141.932 170.039 141.915 170.105C141.898 170.17 141.868 170.232 141.827 170.285C141.786 170.339 141.735 170.383 141.677 170.416L137.228 173.018C137.155 172.998 137.088 172.96 137.033 172.908C136.978 172.856 136.937 172.791 136.912 172.718L136.974 173.09ZM145.861 167.929C145.772 167.928 145.685 167.904 145.608 167.859C145.531 167.814 145.468 167.749 145.423 167.671C145.356 167.551 145.337 167.41 145.372 167.277C145.406 167.144 145.49 167.029 145.606 166.958L150.055 164.357C150.173 164.289 150.312 164.27 150.443 164.306C150.574 164.342 150.685 164.429 150.752 164.548C150.82 164.667 150.838 164.809 150.803 164.941C150.767 165.074 150.682 165.187 150.564 165.255L146.115 167.856C146.038 167.833 145.968 167.789 145.912 167.729C145.857 167.67 145.818 167.596 145.8 167.516L145.861 167.929ZM154.748 162.767C154.659 162.767 154.572 162.743 154.495 162.698C154.419 162.652 154.355 162.587 154.31 162.509C154.243 162.39 154.225 162.249 154.259 162.115C154.293 161.982 154.377 161.868 154.494 161.797L158.942 159.196C159 159.161 159.063 159.138 159.129 159.129C159.195 159.119 159.263 159.123 159.327 159.14C159.392 159.158 159.452 159.188 159.505 159.229C159.558 159.271 159.602 159.323 159.635 159.382C159.702 159.501 159.72 159.643 159.686 159.776C159.652 159.909 159.568 160.023 159.451 160.094L155.003 162.695C154.924 162.662 154.853 162.61 154.798 162.544C154.744 162.477 154.705 162.398 154.687 162.313L154.748 162.767ZM163.646 157.555C163.555 157.555 163.466 157.531 163.388 157.486C163.309 157.441 163.244 157.375 163.198 157.297C163.134 157.177 163.119 157.037 163.155 156.906C163.191 156.775 163.276 156.664 163.391 156.595L167.83 153.993C167.947 153.925 168.087 153.906 168.218 153.941C168.35 153.976 168.462 154.061 168.532 154.179C168.596 154.3 168.611 154.442 168.575 154.574C168.539 154.707 168.455 154.82 168.339 154.891L163.9 157.493C163.822 157.455 163.753 157.401 163.699 157.333C163.644 157.265 163.605 157.186 163.585 157.1L163.646 157.555Z" fill="#F5F5F5"/>
<path d="M4.4494 223.512C4.32664 223.512 4.20788 223.468 4.11345 223.389C3.45142 222.809 2.83532 222.177 2.27084 221.5C2.18709 221.392 2.14678 221.257 2.15813 221.121C2.16948 220.985 2.23164 220.858 2.33192 220.767C2.4378 220.68 2.57275 220.64 2.70785 220.653C2.84296 220.667 2.96748 220.733 3.05472 220.839C3.58443 221.476 4.16312 222.07 4.78535 222.614C4.83622 222.658 4.87798 222.711 4.90816 222.772C4.93833 222.832 4.95632 222.897 4.96106 222.965C4.96581 223.032 4.95721 223.1 4.93577 223.164C4.91434 223.228 4.8805 223.287 4.83625 223.337C4.7889 223.394 4.72954 223.439 4.66257 223.469C4.5956 223.5 4.52274 223.514 4.4494 223.512Z" fill="#F5F5F5"/>
<path d="M149.343 29.3784V13.8224C149.309 13.1879 149.128 12.5703 148.815 12.0197C148.502 11.4691 148.066 11.0011 147.541 10.6534C147.743 10.7371 147.916 10.88 148.038 11.0638C148.16 11.2477 148.225 11.4642 148.225 11.6857C148.225 11.9072 148.16 12.1237 148.038 12.3075C147.916 12.4914 147.743 12.6343 147.541 12.7179L7.39062 94.8126C8.06343 96.0052 8.95494 97.0563 10.0171 97.9094C11.3921 98.9733 12.8894 99.8641 14.476 100.562C18.6416 102.208 23.1022 102.947 27.5677 102.73L147.551 32.5371C148.073 32.1893 148.506 31.7224 148.817 31.1738C149.129 30.6253 149.309 30.0103 149.343 29.3784Z" fill="#E0E0E0"/>
<path d="M147.543 10.6587L146.922 10.2974C146.365 10.0124 145.749 9.86401 145.125 9.86401C144.501 9.86401 143.886 10.0124 143.328 10.2974L6.46635 90.4616C6.32919 91.9887 6.65221 93.522 7.39273 94.8589L147.543 12.7748C147.762 12.701 147.953 12.5591 148.088 12.3691C148.223 12.1792 148.296 11.9509 148.296 11.7167C148.296 11.4825 148.223 11.2542 148.088 11.0643C147.953 10.8744 147.762 10.7325 147.543 10.6587Z" fill="#EBEBEB"/>
<path d="M157.793 18.766C157.756 18.1335 157.574 17.5186 157.261 16.9702C156.948 16.4218 156.513 15.9551 155.991 15.6073L155.37 15.246C154.811 14.961 154.194 14.8125 153.568 14.8125C152.942 14.8125 152.325 14.961 151.766 15.246L10.2617 98.1148C11.587 99.1065 13.0178 99.9444 14.5272 100.613C22.0707 103.802 32.8515 103.482 40.8633 99.8076C42.1765 99.2089 44.182 98.0322 45.424 97.3096L157.793 31.4936V18.766Z" fill="#E0E0E0"/>
<path d="M14.4254 100.578L155.991 17.6987C156.193 17.6151 156.366 17.4722 156.488 17.2884C156.61 17.1045 156.675 16.888 156.675 16.6665C156.675 16.445 156.61 16.2285 156.488 16.0447C156.366 15.8608 156.193 15.7179 155.991 15.6343L155.37 15.273C154.811 14.9879 154.194 14.8395 153.568 14.8395C152.942 14.8395 152.325 14.9879 151.766 15.273L10.2617 98.1416C11.559 99.1034 12.955 99.9202 14.4254 100.578Z" fill="#EBEBEB"/>
<path d="M166.232 23.7098C166.199 23.0764 166.018 22.4599 165.705 21.9109C165.392 21.3619 164.955 20.8959 164.43 20.5511L163.809 20.1795C163.25 19.8944 162.633 19.746 162.007 19.746C161.381 19.746 160.764 19.8944 160.205 20.1795L20.0547 102.233C27.0594 103.484 34.2717 102.641 40.812 99.8071C42.1253 99.2084 44.1308 98.0317 45.3728 97.3091L166.232 26.5484V23.7098Z" fill="#E0E0E0"/>
<path d="M164.43 20.5511L163.809 20.1795C163.25 19.8944 162.633 19.746 162.007 19.746C161.381 19.746 160.764 19.8944 160.205 20.1795L20.0547 102.233C22.5331 102.682 25.0513 102.866 27.5677 102.78L164.43 22.6569C164.645 22.5808 164.832 22.4385 164.965 22.2499C165.097 22.0612 165.168 21.8355 165.168 21.604C165.168 21.3725 165.097 21.1467 164.965 20.9581C164.832 20.7694 164.645 20.6272 164.43 20.5511Z" fill="#EBEBEB"/>
<path d="M199.998 68.1912V98.5702C199.964 99.2021 199.784 99.817 199.473 100.366C199.162 100.914 198.728 101.381 198.207 101.729L143.539 133.728H143.437C139.304 136.113 135.558 136.423 132.82 134.988C131.985 134.554 128.747 132.665 127.994 132.149C125.52 130.529 124.014 127.329 124.014 122.859C124.014 113.569 130.437 102.286 138.51 97.0528L189.747 67.0661L190.012 66.8803C190.734 66.2919 190.643 65.4867 189.747 64.9603L183.11 61.0687V56.1243L198.197 64.9603C198.668 65.2738 199.069 65.6853 199.373 66.1675C199.677 66.6497 199.876 67.1917 199.958 67.7577C199.986 67.9004 199.999 68.0457 199.998 68.1912Z" fill="url(#paint2_linear_141_1339)"/>
<path opacity="0.3" d="M199.998 68.1912V98.5702C199.964 99.2021 199.784 99.817 199.473 100.366C199.162 100.914 198.728 101.381 198.207 101.729L143.539 133.728H143.437C139.304 136.113 135.558 136.423 132.82 134.988C131.985 134.554 128.747 132.665 127.994 132.149C125.52 130.529 124.014 127.329 124.014 122.859C124.014 113.569 130.437 102.286 138.51 97.0528L189.747 67.0661L190.012 66.8803C190.734 66.2919 190.643 65.4867 189.747 64.9603L183.11 61.0687V56.1243L198.197 64.9603C198.668 65.2738 199.069 65.6853 199.373 66.1675C199.677 66.6497 199.876 67.1917 199.958 67.7577C199.986 67.9004 199.999 68.0457 199.998 68.1912Z" fill="black"/>
<path d="M200.001 68.1979V98.5769C199.966 99.2088 199.786 99.8237 199.475 100.372C199.164 100.921 198.73 101.388 198.209 101.736L143.541 133.735H143.44C138.054 136.832 133.321 136.429 130.613 133.219C128.927 130.957 128.087 128.163 128.241 125.333C128.241 115.774 135.092 104.027 143.511 99.0724L195.755 68.4973L198.178 67.0831C199.064 66.5566 199.797 66.8663 199.94 67.7747C199.974 67.9133 199.994 68.0551 200.001 68.1979Z" fill="url(#paint3_linear_141_1339)"/>
<path d="M140.904 117.986C140.904 122.115 143.734 123.736 147.236 121.692C149.08 120.475 150.615 118.833 151.715 116.902C152.815 114.97 153.45 112.802 153.568 110.574C153.568 106.445 150.728 104.814 147.236 106.869C145.392 108.085 143.857 109.726 142.757 111.658C141.656 113.59 141.022 115.758 140.904 117.986Z" fill="#37474F"/>
<path d="M153.793 107.626L151.91 106.532L142.758 122.129L144.906 123.389L153.793 107.626Z" fill="#37474F"/>
<path d="M143.012 119.213C143.012 123.342 145.852 124.962 149.344 122.918C151.188 121.699 152.722 120.056 153.823 118.123C154.923 116.189 155.558 114.02 155.676 111.791C155.676 107.662 152.846 106.041 149.344 108.085C147.501 109.306 145.968 110.95 144.868 112.883C143.768 114.816 143.132 116.984 143.012 119.213Z" fill="#455A64"/>
<defs>
<linearGradient id="paint0_linear_141_1339" x1="91.5451" y1="0" x2="91.5451" y2="240" gradientUnits="userSpaceOnUse">
<stop stop-color="#2ECC71" stop-opacity="0.7"/>
<stop offset="1" stop-color="#112C19" stop-opacity="0.88"/>
</linearGradient>
<linearGradient id="paint1_linear_141_1339" x1="90.9645" y1="0.0738525" x2="90.9645" y2="106.529" gradientUnits="userSpaceOnUse">
<stop stop-color="#2ECC71" stop-opacity="0.7"/>
<stop offset="1" stop-color="#112C19" stop-opacity="0.88"/>
</linearGradient>
<linearGradient id="paint2_linear_141_1339" x1="162.006" y1="56.1243" x2="162.006" y2="135.851" gradientUnits="userSpaceOnUse">
<stop stop-color="#2ECC71" stop-opacity="0.7"/>
<stop offset="1" stop-color="#112C19" stop-opacity="0.88"/>
</linearGradient>
<linearGradient id="paint3_linear_141_1339" x1="164.112" y1="66.8265" x2="164.112" y2="135.855" gradientUnits="userSpaceOnUse">
<stop stop-color="#2ECC71" stop-opacity="0.7"/>
<stop offset="1" stop-color="#112C19" stop-opacity="0.88"/>
</linearGradient>
</defs>
</svg>
