<svg width="185" height="356" viewBox="0 0 185 356" fill="none" xmlns="http://www.w3.org/2000/svg">
<path d="M183.658 64.7893C182.564 62.9982 180.822 61.513 178.658 60.5277L48.6062 1.24932C47.9975 1.06329 47.3534 0.96239 46.702 0.951011C39.9999 0.84021 33.2766 5.89443 32.3298 8.54513C32.1148 8.88004 32.0018 9.25096 32 9.62756V234.928C31.9991 236.687 32.5794 238.415 33.6818 239.936C34.7842 241.457 36.3695 242.717 38.2765 243.588L168.339 302.968C168.501 303.031 168.668 303.085 168.839 303.13C176.594 305.764 184.86 300.284 184.86 294.548V69.1873C184.883 67.667 184.472 66.1627 183.658 64.7893Z" fill="black"/>
<path d="M32.3728 8.53663C33.3196 5.88594 40.0429 0.865811 46.745 0.942519C47.3856 0.956791 48.0186 1.05765 48.6173 1.24083L178.616 60.5278C180.53 61.4 182.126 62.6581 183.245 64.1771C184.365 65.6961 184.97 67.4233 184.999 69.1873V294.573C184.999 300.309 176.733 305.79 168.978 303.156C168.807 303.111 168.64 303.057 168.478 302.994L38.3195 243.588C36.4124 242.717 34.8272 241.457 33.7248 239.936C32.6224 238.415 32.0421 236.687 32.043 234.928V9.63612C32.0414 9.25375 32.1545 8.87667 32.3728 8.53663Z" fill="url(#paint0_linear_141_1517)"/>
<path d="M166.807 93.0097C166.817 92.1304 166.537 91.2646 165.995 90.4999C165.454 89.7351 164.669 89.0985 163.722 88.6544L42.915 33.6375C42.4414 33.4204 41.9048 33.3071 41.3591 33.309C40.8135 33.3109 40.2781 33.4278 39.8068 33.6482C39.3356 33.8685 38.945 34.1844 38.6745 34.564C38.4041 34.9437 38.2632 35.3738 38.2661 35.8109V217.541C38.263 218.419 38.5497 219.282 39.0971 220.042C39.6445 220.803 40.4331 221.434 41.3831 221.871L162.158 277.016C162.631 277.233 163.167 277.346 163.712 277.344C164.256 277.343 164.791 277.227 165.262 277.007C165.733 276.788 166.124 276.473 166.395 276.095C166.666 275.716 166.808 275.287 166.807 274.851V93.0097Z" fill="#2ECC71"/>
<path opacity="0.2" d="M166.807 93.0097C166.817 92.1304 166.537 91.2646 165.995 90.4999C165.454 89.7351 164.669 89.0985 163.722 88.6544L42.915 33.6375C42.4414 33.4204 41.9048 33.3071 41.3591 33.309C40.8135 33.3109 40.2781 33.4278 39.8068 33.6482C39.3356 33.8685 38.945 34.1844 38.6745 34.564C38.4041 34.9437 38.2632 35.3738 38.2661 35.8109V217.541C38.263 218.419 38.5497 219.282 39.0971 220.042C39.6445 220.803 40.4331 221.434 41.3831 221.871L162.158 277.016C162.631 277.233 163.167 277.346 163.712 277.344C164.256 277.343 164.791 277.227 165.262 277.007C165.733 276.788 166.124 276.473 166.395 276.095C166.666 275.716 166.808 275.287 166.807 274.851V93.0097Z" fill="black"/>
<path opacity="0.3" d="M185 69.1865V294.572C185 300.308 176.734 305.789 168.979 303.155C169.446 303.29 169.947 303.334 170.439 303.282C170.931 303.229 171.401 303.083 171.807 302.855C172.214 302.627 172.547 302.323 172.776 301.971C173.006 301.618 173.127 301.226 173.128 300.828V75.4169C173.114 73.4534 172.374 71.5372 171 69.911L183.766 64.7971C184.589 66.1658 185.011 67.6672 185 69.1865Z" fill="black"/>
<path opacity="0.1" d="M46.7032 0.950777C47.3438 0.965049 47.9768 1.0659 48.5755 1.24909L178.617 60.5276C180.78 61.5128 182.523 62.998 183.617 64.7891L170.851 69.903C169.788 68.6016 168.355 67.5208 166.67 66.7495L36.6926 7.47098C36.3245 7.30374 35.9177 7.19851 35.497 7.16177C35.0763 7.12502 34.6507 7.15753 34.2463 7.25729C33.8418 7.35705 33.4671 7.52197 33.1451 7.74192C32.823 7.96187 32.5605 8.23222 32.3735 8.53638C33.3097 5.8942 40.033 0.865545 46.7032 0.950777Z" fill="white"/>
<path d="M86.5099 44.6916C85.595 44.2654 84.8396 44.5978 84.829 45.4416C84.8635 45.9031 85.0326 46.3516 85.3227 46.7513C85.6127 47.1509 86.0157 47.4905 86.4992 47.7428L112.031 59.5474C112.946 59.9735 113.68 59.6156 113.69 58.7718C113.659 58.3151 113.494 57.8709 113.207 57.4753C112.92 57.0798 112.521 56.7443 112.042 56.4961L86.5099 44.6916Z" fill="black"/>
<path d="M118.578 59.5225C117.663 59.1048 116.929 59.4372 116.929 60.281C116.955 60.7412 117.117 61.1898 117.402 61.5899C117.686 61.99 118.086 62.3301 118.567 62.5823C119.482 62.9999 120.237 62.659 120.237 61.8152C120.206 61.3552 120.04 60.9075 119.751 60.509C119.463 60.1104 119.061 59.7724 118.578 59.5225Z" fill="black"/>
<path d="M102.248 42.979C100.418 42.1267 98.9499 42.8 98.9393 44.4876C98.9982 45.4052 99.3266 46.2988 99.8978 47.0956C100.469 47.8924 101.267 48.5699 102.226 49.073C104.046 49.9253 105.567 49.2264 105.567 47.5474C105.501 46.6304 105.166 45.7388 104.59 44.945C104.013 44.1512 103.211 43.4776 102.248 42.979Z" fill="black"/>
<path d="M102.237 255.154C98.5246 253.45 95.5246 254.805 95.514 258.223C95.6235 260.097 96.2861 261.924 97.4474 263.554C98.6087 265.184 100.236 266.57 102.195 267.598C105.907 269.303 108.993 267.905 109.003 264.487C108.87 262.615 108.188 260.794 107.013 259.173C105.837 257.551 104.201 256.175 102.237 255.154Z" fill="black"/>
<path d="M153.444 106.642C153.279 106.279 153.09 105.916 152.889 105.562C152.065 104.165 150.883 102.935 149.425 101.958C148.924 101.632 148.394 101.336 147.842 101.074L16.6777 39.0698C16.4622 38.9892 16.2361 38.9299 16.0039 38.893C15.6145 38.8253 15.2193 38.7827 14.822 38.7654C10.6023 38.6966 6.37083 40.7297 3.55773 42.9395C2.13598 43.9652 1.0297 45.2583 0.330953 46.711C0.234739 46.8855 0.155667 47.0662 0.0945431 47.2512C0.0326043 47.4468 0.000846186 47.6481 8.23443e-07 47.8503V283.5C-0.000802754 285.339 0.586551 287.146 1.70201 288.735C1.97656 289.127 2.28055 289.504 2.61216 289.864C3.62809 290.956 4.89333 291.871 6.33538 292.556L137.535 354.658C137.696 354.725 137.862 354.784 138.031 354.834C138.031 354.834 138.031 354.834 138.09 354.834C145.915 357.584 154.248 351.888 154.248 345.848V110.178C154.229 108.97 153.957 107.773 153.444 106.642Z" fill="#2ECC71"/>
<path d="M0.307422 46.7103C1.26482 43.9308 8.04938 38.6468 14.7985 38.7646C15.4491 38.7751 16.0927 38.8781 16.7014 39.0691L147.901 101.073C149.818 101.994 151.411 103.314 152.525 104.904C153.638 106.494 154.232 108.299 154.248 110.138V345.896C154.248 351.907 145.974 357.633 138.09 354.883C138.09 354.883 138.09 354.883 138.031 354.883C137.862 354.832 137.696 354.773 137.535 354.706L6.33551 292.604C4.41312 291.692 2.81477 290.374 1.70225 288.784C0.589738 287.194 0.00256619 285.388 0.000132255 283.549V47.8496C-0.00426158 47.4553 0.100879 47.0654 0.307422 46.7103Z" fill="#2ECC71"/>
<path opacity="0.2" d="M154.187 110.178V345.896C154.187 351.907 145.913 357.633 138.029 354.883C138.029 354.883 138.029 354.883 137.97 354.883C138.442 355.025 138.947 355.07 139.445 355.015C139.942 354.961 140.416 354.807 140.827 354.569C141.239 354.33 141.575 354.013 141.808 353.644C142.041 353.274 142.163 352.864 142.166 352.447V116.729C142.156 114.678 141.415 112.676 140.038 110.974L152.886 105.641C153.728 107.052 154.173 108.603 154.187 110.178Z" fill="white"/>
<path opacity="0.4" d="M14.7836 38.7646C15.4342 38.7751 16.0778 38.8781 16.6866 39.0691L147.886 101.073C150.072 102.114 151.831 103.678 152.933 105.561L140.085 110.894C139.013 109.532 137.567 108.401 135.865 107.594L4.66585 45.5808C4.29288 45.407 3.88116 45.2982 3.45588 45.2612C3.0306 45.2241 2.6007 45.2595 2.19246 45.3652C1.78421 45.471 1.40618 45.6448 1.08154 45.8761C0.756897 46.1073 0.492446 46.3912 0.304352 46.7103C1.30903 43.9308 8.03448 38.6468 14.7836 38.7646Z" fill="white"/>
<path opacity="0.3" d="M0.307422 46.7103C1.26482 43.9308 8.04938 38.6468 14.7985 38.7646C15.4491 38.7751 16.0927 38.8781 16.7014 39.0691L147.901 101.073C149.818 101.994 151.411 103.314 152.525 104.904C153.638 106.494 154.232 108.299 154.248 110.138V345.896C154.248 351.907 145.974 357.633 138.09 354.883C138.09 354.883 138.09 354.883 138.031 354.883C137.862 354.832 137.696 354.773 137.535 354.706L6.33551 292.604C4.41312 291.692 2.81477 290.374 1.70225 288.784C0.589738 287.194 0.00256619 285.388 0.000132255 283.549V47.8496C-0.00426158 47.4553 0.100879 47.0654 0.307422 46.7103Z" fill="white"/>
<path d="M128.709 159.394L11.8114 103.303C10.6885 102.763 9.77841 103.195 9.77841 104.285L9.58929 213.766C9.62353 214.356 9.82564 214.931 10.1791 215.443C10.5325 215.955 11.0271 216.39 11.6223 216.713L128.508 272.794C129.631 273.324 130.541 272.902 130.553 271.812L130.718 162.321C130.686 161.736 130.487 161.165 130.137 160.656C129.788 160.148 129.299 159.715 128.709 159.394Z" fill="#2ECC71"/>
<path d="M17.1648 66.9232L18.5595 67.591L18.5714 62.6311L17.1885 61.9633L17.1648 66.9232Z" fill="white"/>
<path d="M14.7794 65.7739L16.1623 66.4418L16.186 62.4248L14.7912 61.7667L14.7794 65.7739Z" fill="white"/>
<path d="M12.3888 64.6246L13.7717 65.2925L13.7835 62.3166L12.4006 61.6487L12.3888 64.6246Z" fill="white"/>
<path d="M9.99631 63.4857L11.3792 64.1438L11.391 62.1402L9.99631 61.4723V63.4857Z" fill="white"/>
<path d="M22.3391 69.3984L30.8375 73.4841L30.8493 69.3198L22.3508 65.234L22.3391 69.3984Z" fill="white"/>
<path d="M35.0746 75.5073L39.3298 77.5502L39.3416 73.3859L35.0865 71.3528L35.0746 75.5073Z" fill="white"/>
<path d="M122.845 117.102L122.857 113.743L127.42 115.933L122.857 113.743L122.845 117.102Z" fill="white"/>
<path d="M122.845 117.102L127.42 119.292V115.933L122.857 113.743L122.845 117.102Z" fill="#2ECC71"/>
<path d="M130.634 118.036V116.719L122.017 112.585V117.495L130.634 121.63V120.324L131.733 120.854V118.517L130.634 118.036ZM127.419 119.342L122.845 117.152V113.793L127.419 115.983V119.342Z" fill="white"/>
<path d="M109.673 111.22L118.171 115.295L118.195 111.131L109.684 107.055L109.673 111.22Z" fill="white"/>
<path d="M69.0769 91.4965L77.5753 95.5823L77.599 91.4179L69.0887 87.3322L69.0769 91.4965Z" fill="white"/>
<path d="M49.1864 268.542L49.1746 272.696L70.9702 283.156L70.9939 279.002L49.1864 268.542Z" fill="#2ECC71"/>
<path d="M80.9772 270.221L58.5433 259.446L58.5197 263.601L80.9654 274.365L80.9772 270.221Z" fill="#2ECC71"/>
<path d="M11.6402 247.582L39.1921 260.89L39.2039 256.746L11.6521 243.437L11.6402 247.582Z" fill="#2ECC71"/>
<path d="M52.5076 256.558L11.6821 236.875L11.6703 241.02L52.4958 260.703L52.5076 256.558Z" fill="#2ECC71"/>
<path d="M45.2143 263.778L94.9282 287.624L94.94 283.48L45.2379 259.633L45.2143 263.778Z" fill="#2ECC71"/>
<path d="M43.8821 266.007L11.6733 250.557L11.6615 254.702L43.8703 270.151L43.8821 266.007Z" fill="#2ECC71"/>
<path d="M86.762 277.144L126.488 296.208L126.512 292.053L86.7738 272.99L86.762 277.144Z" fill="#2ECC71"/>
<path d="M100.717 290.404L126.472 302.759L126.484 298.614L100.74 286.259L100.717 290.404Z" fill="#2ECC71"/>
<path d="M11.6703 268.962L61.3843 292.809L61.396 288.665L11.6821 264.808L11.6703 268.962Z" fill="#2ECC71"/>
<path d="M11.6733 274.611L11.6615 278.766L43.8821 294.215V290.061L11.6733 274.611Z" fill="#2ECC71"/>
<path d="M68.7571 301.983L49.1126 292.564V296.719L68.7452 306.138L68.7571 301.983Z" fill="#2ECC71"/>
<path d="M14.6425 223.794C14.341 223.61 13.9857 223.496 13.6136 223.465C13.2415 223.434 12.8662 223.487 12.5267 223.617C11.3447 224.167 11.3447 225.964 12.5267 227.634L13.2004 228.616L17.4083 234.666L21.6398 232.702L22.3253 232.378C23.5073 231.828 23.5073 230.021 22.3253 228.351C21.8277 227.584 21.1038 226.935 20.2214 226.465C19.9174 226.286 19.5625 226.175 19.1916 226.144C18.8207 226.113 18.4465 226.163 18.1056 226.288L17.4201 226.613L16.7464 225.63C16.2458 224.879 15.5214 224.246 14.6425 223.794Z" fill="white"/>
<path d="M32.1914 232.406C33.7028 233.223 34.9607 234.325 35.8624 235.622C36.7642 236.919 37.2842 238.375 37.3803 239.871C37.4138 240.628 37.1662 241.376 36.6711 242.012L37.3566 244.831L34.7563 242.925C33.8393 242.952 32.9337 242.75 32.1559 242.346C30.6467 241.528 29.3911 240.426 28.4915 239.129C27.5919 237.832 27.0736 236.376 26.9789 234.881C26.9907 232.131 29.3192 231.031 32.1914 232.406Z" fill="white"/>
<path d="M76.7107 144.308L82.7506 153.481L91.5327 156.025L95.2441 165.572L104.121 170.836L105.149 179.813L113.257 187.287L111.473 194.82L118.021 203.758L113.624 209.111L117.974 218.657L111.39 221.299L113.104 230.512L104.972 230.188L103.896 238.163L95.0077 234.902L91.249 240.864L82.4788 234.981L76.3916 238.35L68.6024 230.433L60.7895 230.866L54.7378 221.682L45.9675 219.148L42.2561 209.592L33.3795 204.337L32.363 195.351L24.2546 187.886L26.0276 180.343L19.4794 171.406L23.8764 166.053L19.5267 156.506L26.1221 153.864L24.3965 144.652L32.5285 144.985L33.6041 137.01L42.4925 140.261L46.263 134.3L55.0215 140.183L61.1086 136.824L68.8979 144.74L76.7107 144.308Z" fill="#2ECC71"/>
<g opacity="0.4">
<path d="M76.7033 144.309L82.7432 153.482L91.5253 156.026L95.2367 165.573L104.113 170.837L105.142 179.814L113.25 187.288L111.465 194.821L118.013 203.759L113.616 209.112L117.966 218.658L111.383 221.3L113.096 230.513L104.964 230.189L103.889 238.164L95.0003 234.903L91.2416 240.865L82.4714 234.982L76.3842 238.351L68.595 230.434L60.7821 230.866L54.7304 221.683L45.9601 219.149L42.2487 209.593L33.3721 204.338L32.3556 195.352L24.2472 187.887L26.0202 180.344L19.472 171.407L23.869 166.054L19.5193 156.507L26.1147 153.865L24.389 144.653L32.521 144.986L33.5966 137.011L42.4851 140.262L46.2556 134.301L55.0141 140.184L61.1012 136.825L68.8904 144.741L76.7033 144.309Z" fill="white"/>
</g>
<path d="M68.8736 151.733C89.6055 161.682 106.354 185.794 106.283 205.594C106.212 225.395 89.3573 233.37 68.6845 223.43C48.0117 213.491 31.204 189.369 31.2631 169.569C31.3222 149.768 48.1299 141.793 68.8736 151.733Z" fill="#2ECC71"/>
<g opacity="0.2">
<path d="M68.8745 151.733C89.6064 161.682 106.355 185.794 106.284 205.594C106.213 225.395 89.3582 233.37 68.6854 223.43C48.0126 213.491 31.2049 189.369 31.264 169.569C31.3231 149.768 48.1309 141.793 68.8745 151.733Z" fill="white"/>
</g>
<path d="M94.4076 182.858C95.3177 183.29 95.8614 184.714 95.0458 184.96C87.5875 187.219 71.7845 192.63 62.1396 200.409C61.8007 200.626 61.3852 200.743 60.9576 200.743C60.5301 200.743 60.1145 200.626 59.7756 200.409C58.7484 199.89 57.9266 199.132 57.4117 198.229C52.9828 190.821 48.0213 183.642 42.5543 176.729C41.5614 175.472 42.1996 174.284 43.3816 174.853C43.4784 174.898 43.5695 174.951 43.6535 175.011C49.6119 179.173 54.8291 184.018 59.1492 189.399C73.7584 181.601 87.0202 181.807 94.0175 182.74C94.1549 182.76 94.2869 182.8 94.4076 182.858Z" fill="white"/>
<path d="M19.589 87.7653C21.7871 88.9541 23.616 90.5577 24.9265 92.4455C26.237 94.3332 26.992 96.4516 27.13 98.6279C27.13 102.616 23.7141 104.226 19.5417 102.223C17.3348 101.038 15.4967 99.4365 14.1778 97.5485C12.8589 95.6604 12.0966 93.5398 11.9534 91.36C12.0125 87.3724 15.4048 85.7617 19.589 87.7653Z" fill="white"/>
<path d="M74.859 118.938L34.0335 99.2554L34.0217 103.41L74.8472 123.092L74.859 118.938Z" fill="white"/>
<defs>
<linearGradient id="paint0_linear_141_1517" x1="108.521" y1="0.94165" x2="108.521" y2="303.835" gradientUnits="userSpaceOnUse">
<stop stop-color="#05140B"/>
<stop offset="1" stop-color="#1C7A44"/>
</linearGradient>
</defs>
</svg>
