<svg width="48" height="48" viewBox="0 0 48 48" fill="none" xmlns="http://www.w3.org/2000/svg">
<rect x="0.5" y="0.5" width="47" height="47" fill="url(#paint0_linear_210_2957)" stroke="#2ECC71"/>
<path d="M14.0833 24C13.7518 24 13.4339 24.1317 13.1994 24.3661C12.965 24.6005 12.8333 24.9185 12.8333 25.25C12.8333 25.5815 12.965 25.8994 13.1994 26.1339C13.4339 26.3683 13.7518 26.5 14.0833 26.5H33.0233C33.3548 26.5 33.6728 26.3683 33.9072 26.1339C34.1416 25.8994 34.2733 25.5815 34.2733 25.25C34.2733 24.9185 34.1416 24.6005 33.9072 24.3661C33.6728 24.1317 33.3548 24 33.0233 24H14.0833ZM12.8333 30.25C12.8333 29.9185 12.965 29.6005 13.1994 29.3661C13.4339 29.1317 13.7518 29 14.0833 29H26.35C26.6815 29 26.9994 29.1317 27.2339 29.3661C27.4683 29.6005 27.6 29.9185 27.6 30.25C27.6 30.5815 27.4683 30.8994 27.2339 31.1339C26.9994 31.3683 26.6815 31.5 26.35 31.5H14.0833C13.7518 31.5 13.4339 31.3683 13.1994 31.1339C12.965 30.8994 12.8333 30.5815 12.8333 30.25ZM13.945 12.755C14.3559 12.4803 14.839 12.3335 15.3333 12.3333C15.6622 12.3311 15.9883 12.3942 16.2926 12.5191C16.597 12.6439 16.8734 12.828 17.106 13.0606C17.3386 13.2932 17.5227 13.5697 17.6475 13.874C17.7724 14.1783 17.8355 14.5044 17.8333 14.8333C17.8334 15.2653 17.7216 15.6899 17.5088 16.0658C17.296 16.4417 16.9894 16.756 16.6189 16.9782C16.2484 17.2003 15.8267 17.3227 15.3949 17.3333C14.963 17.3439 14.5358 17.2425 14.1548 17.0389C13.7739 16.8352 13.4522 16.5364 13.2211 16.1714C12.99 15.8064 12.8574 15.3878 12.8363 14.9564C12.8152 14.5249 12.9062 14.0953 13.1005 13.7095C13.2948 13.3237 13.5857 12.9949 13.945 12.755ZM20.3333 14.8333C20.3333 14.5018 20.465 14.1838 20.6994 13.9494C20.9338 13.715 21.2518 13.5833 21.5833 13.5833H33.0166C33.3482 13.5833 33.6661 13.715 33.9005 13.9494C34.135 14.1838 34.2666 14.5018 34.2666 14.8333C34.2666 15.1648 34.135 15.4828 33.9005 15.7172C33.6661 15.9516 33.3482 16.0833 33.0166 16.0833H21.5833C21.2518 16.0833 20.9338 15.9516 20.6994 15.7172C20.465 15.4828 20.3333 15.1648 20.3333 14.8333Z" fill="#2ECC71"/>
<path d="M8.56667 11.4283C7.75 13.0333 7.75 15.1333 7.75 19.3333V28.6666C7.75 32.8666 7.75 34.9666 8.56667 36.5716C9.28578 37.9832 10.4334 39.1309 11.845 39.85C13.45 40.6666 15.55 40.6666 19.75 40.6666H28.25C32.45 40.6666 34.55 40.6666 36.155 39.85C37.5666 39.1309 38.7142 37.9832 39.4333 36.5716C40.25 34.9666 40.25 32.8666 40.25 28.6666V19.3333C40.25 15.1333 40.25 13.0333 39.4333 11.4283C38.7142 10.0167 37.5666 8.86909 36.155 8.14998C34.55 7.33331 32.45 7.33331 28.25 7.33331H19.75C15.55 7.33331 13.45 7.33331 11.845 8.14998C10.4334 8.86909 9.28578 10.0167 8.56667 11.4283ZM37.75 21.5V26.1666C37.75 29.2 37.75 30.7166 37.16 31.875C36.6407 32.8939 35.8123 33.7224 34.7933 34.2416C33.6333 34.8333 32.1167 34.8333 29.0833 34.8333H18.9167C15.8833 34.8333 14.3667 34.8333 13.2083 34.2433C12.1894 33.724 11.3609 32.8956 10.8417 31.8766C10.25 30.7166 10.25 29.2 10.25 26.1666V21.5H37.75ZM36.2983 36.4416C35.8656 36.9032 35.3564 37.2866 34.7933 37.575C33.6333 38.1666 32.1167 38.1666 29.0833 38.1666H18.9167C15.8833 38.1666 14.3667 38.1666 13.2083 37.5766C12.6451 37.2877 12.1359 36.9038 11.7033 36.4416L11.845 36.515C13.45 37.3333 15.55 37.3333 19.75 37.3333H28.25C32.45 37.3333 34.55 37.3333 36.155 36.5166L36.2983 36.4416ZM10.84 12.7916C11.3593 11.7727 12.1877 10.9442 13.2067 10.425C14.3667 9.83331 15.8833 9.83331 18.9167 9.83331H29.0833C32.1167 9.83331 33.6333 9.83331 34.7933 10.4233C35.8123 10.9426 36.6407 11.771 37.16 12.79C37.75 13.95 37.75 15.4666 37.75 18.5V19H10.25V18.5C10.25 15.4666 10.25 13.95 10.84 12.7916Z" fill="#2ECC71"/>
<defs>
<linearGradient id="paint0_linear_210_2957" x1="24" y1="0" x2="24" y2="48" gradientUnits="userSpaceOnUse">
<stop stop-color="#2ECC71" stop-opacity="0.4"/>
<stop offset="1" stop-color="#176639" stop-opacity="0.2"/>
</linearGradient>
</defs>
</svg>
