<svg width="48" height="48" viewBox="0 0 48 48" fill="none" xmlns="http://www.w3.org/2000/svg">
<rect x="0.5" y="0.5" width="47" height="47" fill="url(#paint0_linear_210_2990)" stroke="#2ECC71"/>
<path fill-rule="evenodd" clip-rule="evenodd" d="M35.6667 9C38.4281 9 40.6667 11.2386 40.6667 14C40.6667 16.7614 38.4281 19 35.6667 19C34.758 19 33.9058 18.7576 33.1715 18.3339L28.6649 22.1966C28.8872 22.7719 29.0009 23.3833 29.0001 24C29.0002 24.2992 28.9736 24.5978 28.9206 24.8922L32.4005 26.8807C33.2767 26.1242 34.4183 25.6666 35.6667 25.6666C38.4281 25.6666 40.6667 27.9052 40.6667 30.6666C40.6667 33.428 38.4281 35.6666 35.6667 35.6666C32.9053 35.6666 30.6667 33.4281 30.6667 30.6666C30.6667 30.3623 30.6939 30.0642 30.746 29.7748L27.2656 27.7863L27.2702 27.7823L27.2314 27.8155C26.36 28.5544 25.232 29 24 29C23.0859 29 22.2292 28.7547 21.492 28.3264L21.5044 28.3336L16.9981 32.1964C17.2205 32.7717 17.3342 33.3832 17.3334 34C17.3334 36.7614 15.0948 39 12.3334 39C9.57203 39 7.33344 36.7614 7.33344 34C7.33344 31.2386 9.57203 29 12.3334 29C13.2422 29 14.0943 29.2424 14.8287 29.6662L19.3352 25.8034L19.3159 25.7527C19.1064 25.1921 18.9994 24.5984 19 24C18.9998 23.7008 19.0264 23.4023 19.0794 23.1078L15.5995 21.1193C14.7234 21.8758 13.5818 22.3334 12.3334 22.3334C9.57195 22.3334 7.33336 20.0948 7.33336 17.3334C7.33336 14.572 9.57195 12.3334 12.3334 12.3334C15.0948 12.3334 17.3334 14.5719 17.3334 17.3334C17.3334 17.6376 17.3062 17.9355 17.2541 18.2248L20.7348 20.2133C20.7207 20.2254 20.7067 20.2376 20.6929 20.2498C21.5743 19.472 22.732 19 24 19C24.9094 19 25.7621 19.2428 26.4969 19.6671L26.4941 19.6655L31.0016 15.8028C30.7794 15.2278 30.6659 14.6165 30.6667 14C30.6667 11.2386 32.9052 9 35.6667 9ZM24 22.3334C23.0795 22.3334 22.3334 23.0795 22.3334 24C22.3334 24.9205 23.0795 25.6666 24 25.6666C24.9205 25.6666 25.6667 24.9205 25.6667 24C25.6667 23.0795 24.9205 22.3334 24 22.3334ZM12.3334 15.6666C11.4129 15.6666 10.6667 16.4129 10.6667 17.3334C10.6667 18.2538 11.4128 19 12.3334 19C13.2539 19 14 18.2538 14 17.3334C14 16.4129 13.2539 15.6666 12.3334 15.6666ZM35.6667 12.3334C34.7463 12.3334 34 13.0795 34 14C34 14.9205 34.7463 15.6666 35.6667 15.6666C36.5872 15.6666 37.3334 14.9205 37.3334 14C37.3334 13.0795 36.5872 12.3334 35.6667 12.3334Z" fill="#2ECC71"/>
<defs>
<linearGradient id="paint0_linear_210_2990" x1="24" y1="0" x2="24" y2="48" gradientUnits="userSpaceOnUse">
<stop stop-color="#2ECC71" stop-opacity="0.4"/>
<stop offset="1" stop-color="#176639" stop-opacity="0.2"/>
</linearGradient>
</defs>
</svg>
